<svg width="414" height="298" viewBox="0 0 414 298" fill="none" xmlns="http://www.w3.org/2000/svg">
<path d="M-3.19202 157.611C-11.1292 115.074 -28.8621 111.366 -42.498 89.8944C-54.912 70.3639 -64.9232 38.413 -29.8888 15.571C24.5316 -19.9391 91.2736 16.3968 91.2736 16.3968C91.2736 16.3968 197.034 65.1199 215.516 67.5974C233.999 70.0748 279.178 94.8493 335.652 65.1199C392.126 35.3905 440.386 37.868 455.788 60.165C471.19 82.4621 436.278 146.876 428.064 160.089C419.85 173.302 432.171 214.593 445.52 231.109C458.868 247.625 500.967 298.826 410.608 297.174C320.25 295.523 49.1748 298 49.1748 298C49.1748 298 -48.1351 296.538 -30.9156 220.373C-16.5404 156.785 -0.111618 174.128 -3.19202 157.611Z" fill="url(#paint0_linear)"/>
<path d="M358 265.423H61V268H358V265.423Z" fill="#85848B"/>
<path d="M296.301 219.92C296.301 221.902 286.57 227.681 275.01 227.681C263.451 227.681 254.444 221.902 254.444 219.92C254.444 217.937 263.813 218.576 275.384 218.576C286.955 218.576 296.301 217.934 296.301 219.92Z" fill="#504F60"/>
<path opacity="0.2" d="M296.301 219.92C296.301 221.902 286.57 227.681 275.01 227.681C263.451 227.681 254.444 221.902 254.444 219.92" fill="black"/>
<path d="M179.89 183.545C181.766 183.831 183.713 184.012 185.51 183.32C185.793 183.216 186.104 182.984 186.076 182.648C186.055 182.526 186.012 182.411 185.948 182.312C185.271 181.106 184.702 179.819 184.251 178.472C184.233 178.402 184.196 178.34 184.146 178.297C184.087 178.272 184.023 178.272 183.965 178.297C183.136 178.556 182.42 179.191 181.596 179.463C181.176 179.6 180.738 179.639 180.306 179.577C179.932 179.527 179.423 179.161 179.083 179.208C179.276 180.676 179.746 182.047 179.89 183.545Z" fill="#5E35B1"/>
<path d="M215.372 179.826C216.608 178.818 217.89 177.76 218.62 176.204C218.672 176.111 218.702 176.003 218.708 175.892C218.695 175.782 218.659 175.678 218.603 175.589C217.908 174.276 217.012 173.129 215.963 172.206C215.415 172.665 214.921 173.207 214.492 173.818C214.18 174.208 213.32 174.826 213.312 175.421C213.312 175.757 213.64 176.147 213.793 176.429C213.999 176.792 214.194 177.162 214.381 177.538C214.489 177.723 215.471 179.752 215.372 179.826Z" fill="#5E35B1"/>
<path d="M187.244 188.044C187.266 188.39 187.186 188.735 187.018 189.019C186.886 189.176 186.722 189.292 186.543 189.355C183.919 190.47 180.883 189.079 178.266 190.178C177.728 190.403 177.219 190.729 176.678 190.944C176.034 191.174 175.369 191.314 174.697 191.36C173.772 191.465 172.841 191.532 171.913 191.562C171.208 191.621 170.499 191.548 169.813 191.344C169.47 191.239 169.15 191.051 168.872 190.79C168.595 190.528 168.367 190.201 168.203 189.828C168.061 189.494 168.033 189.108 168.124 188.75C168.165 188.627 168.223 188.513 168.297 188.414C168.474 188.178 168.682 187.977 168.914 187.819L169.878 187.08C170.331 186.7 170.823 186.391 171.341 186.159C171.723 186.011 172.128 185.948 172.516 185.823C173.871 185.353 174.907 184.076 175.869 182.85L177.182 181.187C177.305 181.004 177.46 180.856 177.638 180.753C177.82 180.681 178.013 180.659 178.203 180.689C179.479 180.798 180.71 181.288 181.783 182.114C182.057 182.358 182.353 182.565 182.666 182.732C183.436 183.088 184.423 182.82 185.133 182.369C185.47 182.154 185.397 182.033 185.538 181.65C185.68 181.267 186.025 181.022 186.325 181.371C186.415 181.492 186.479 181.638 186.511 181.795C186.794 182.904 186.687 184.096 186.687 185.259C186.679 185.441 186.698 185.623 186.744 185.796C186.816 185.972 186.902 186.138 187.001 186.294C187.021 186.335 187.039 186.378 187.055 186.421C187.228 186.936 187.293 187.493 187.244 188.044Z" fill="#514E7F"/>
<path d="M187.244 188.044C187.266 188.39 187.186 188.735 187.018 189.019C186.886 189.176 186.722 189.292 186.543 189.355C183.919 190.47 180.883 189.079 178.266 190.178C177.728 190.403 177.219 190.729 176.678 190.944C176.034 191.174 175.369 191.314 174.697 191.361C173.772 191.465 172.841 191.532 171.913 191.562C171.208 191.621 170.499 191.548 169.813 191.344C169.47 191.239 169.15 191.051 168.872 190.79C168.595 190.529 168.367 190.201 168.203 189.828C168.061 189.494 168.033 189.108 168.124 188.75C168.165 188.627 168.223 188.513 168.297 188.414C168.449 188.794 168.56 189.298 168.656 189.479C168.786 189.748 168.963 189.981 169.175 190.162C169.386 190.343 169.628 190.469 169.884 190.531C170.267 190.559 170.651 190.5 171.016 190.359C173.393 189.66 175.92 189.65 178.203 188.592C178.987 188.226 179.734 187.739 180.558 187.517C181.381 187.295 182.256 187.356 183.105 187.272C184.446 187.144 185.745 186.663 187.066 186.411C187.237 186.93 187.298 187.491 187.244 188.044Z" fill="#464353"/>
<path d="M221.379 179.621C221.255 180.804 220.624 181.822 219.93 182.685C219.237 183.549 218.453 184.325 217.901 185.319C217.222 186.553 216.917 188.081 216.034 189.123C215.695 189.502 215.314 189.824 214.902 190.08C214.44 190.404 213.952 190.671 213.445 190.877C212.126 191.377 210.705 191.263 209.327 191.142C208.88 191.137 208.437 191.036 208.02 190.843C207.83 190.729 207.649 190.596 207.477 190.447C207.131 190.194 206.841 189.849 206.628 189.439C206.523 189.216 206.494 188.954 206.546 188.706C206.625 188.433 206.76 188.188 206.939 187.994C207.249 187.611 207.582 187.255 207.935 186.929C208.42 186.558 208.856 186.105 209.231 185.585C209.461 185.174 209.631 184.719 209.732 184.241C209.933 183.403 210.055 182.541 210.097 181.671C210.096 181.092 210.146 180.516 210.247 179.95C210.456 179.063 211.011 178.27 210.949 177.353C210.924 177.222 210.934 177.084 210.977 176.96C211.043 176.863 211.135 176.795 211.237 176.768C211.67 176.564 212.126 176.438 212.59 176.395C212.823 176.376 213.056 176.419 213.274 176.52C213.491 176.621 213.687 176.778 213.846 176.98C214.039 177.256 214.166 177.652 214.449 177.76C214.589 177.805 214.737 177.812 214.879 177.78C215.575 177.696 216.311 177.592 216.86 177.057C217.114 176.787 217.318 176.458 217.459 176.089C217.6 175.721 217.676 175.322 217.681 174.917C217.681 174.611 217.565 174.292 217.964 174.245C218.264 174.198 218.501 174.581 218.654 174.816C219.206 175.693 219.772 176.611 219.978 177.679C220.059 177.642 220.144 177.623 220.23 177.622C220.407 177.62 220.581 177.669 220.738 177.764C220.895 177.86 221.031 177.999 221.133 178.17C221.358 178.603 221.446 179.118 221.379 179.621Z" fill="#514E7F"/>
<path d="M221.379 179.621C221.255 180.804 220.624 181.822 219.93 182.685C219.237 183.549 218.453 184.325 217.901 185.319C217.222 186.552 216.917 188.081 216.034 189.123C215.695 189.502 215.314 189.824 214.902 190.08C214.44 190.404 213.952 190.671 213.445 190.877C212.126 191.377 210.705 191.263 209.327 191.142C208.88 191.137 208.437 191.036 208.02 190.843C207.83 190.729 207.648 190.596 207.477 190.447C207.131 190.194 206.841 189.849 206.628 189.439C206.893 189.287 207.182 189.205 207.477 189.197C208.088 189.237 208.535 189.922 209.121 190.134C209.956 190.433 210.787 189.734 211.634 189.496C212.185 189.341 212.765 189.382 213.312 189.16C213.767 188.951 214.187 188.648 214.554 188.266C215.056 187.839 215.503 187.328 215.881 186.747C216.194 186.167 216.455 185.549 216.659 184.903C217.106 183.665 217.632 182.47 218.232 181.328C218.321 181.147 218.429 180.98 218.552 180.831C218.685 180.686 218.835 180.585 218.985 180.458C219.551 179.95 219.786 179.114 219.984 178.294C220.038 178.045 220.113 177.803 220.208 177.571C220.384 177.57 220.558 177.618 220.715 177.714C220.873 177.809 221.008 177.948 221.11 178.119C221.354 178.563 221.449 179.098 221.379 179.621Z" fill="#464353"/>
<path d="M162.043 74.8658C162.747 75.4925 163.327 76.2954 163.741 77.2177C164.137 78.1384 166.421 85.2815 166.288 86.3197C167.032 85.4294 169.966 85.2849 170.719 84.3945C171.033 84.0216 172.728 82.1602 172.983 81.7267C173.237 81.2933 175.128 80.3828 175.334 79.9258C176.107 78.2828 169.856 72.0569 170.657 70.4341C170.701 70.3595 170.724 70.27 170.722 70.1787C170.704 70.1021 170.667 70.0334 170.617 69.9805C170.105 69.3589 169.426 68.9725 168.809 68.5122C168.192 68.0519 167.598 67.4102 167.431 66.5635C166.843 66.885 166.302 67.3186 165.832 67.847C164.685 69.014 163.558 70.2045 162.451 71.4185C162.018 71.8957 161.18 72.5307 160.979 73.2127C160.741 73.9452 161.63 74.466 162.043 74.8658Z" fill="#A1616A"/>
<path d="M172.162 72.2216C171.203 72.9868 170.307 73.8575 169.485 74.8221C168.71 75.7327 167.974 76.7877 167.787 78.0611C167.708 78.5617 167.719 79.0691 167.654 79.5764C167.371 81.7771 165.77 83.3899 165.062 85.4495C164.857 86.0852 164.707 86.7437 164.612 87.4151C164.414 88.6878 164.305 89.978 164.287 91.2722C164.27 92.5255 165.306 93.389 165.685 94.5582C166.064 95.7275 166.166 96.9303 166.358 98.1298C166.72 100.394 167.385 102.578 168.056 104.749C169.451 109.325 173.973 121.975 175.368 126.555C179.644 125.281 191.025 122.355 194.811 119.67C196.073 118.776 186.053 108.693 187.403 107.998C187.48 107.984 187.553 107.948 187.617 107.895C187.681 107.841 187.733 107.77 187.77 107.689C187.806 107.607 187.827 107.516 187.829 107.423C187.831 107.331 187.815 107.239 187.782 107.155C186.432 100.146 182.21 94.3869 180.295 87.5629C179.63 85.1942 178.435 83.1715 177.53 80.9204C176.709 78.8809 176.271 76.6264 175.289 74.6877C175.104 74.2883 174.861 73.9302 174.573 73.6294C174.328 73.4064 174.063 73.216 173.783 73.0615C173.223 72.739 172.702 72.5475 172.162 72.2216Z" fill="#514E7F"/>
<path d="M162.269 74.0695C165.965 74.0695 168.962 70.5119 168.962 66.1233C168.962 61.7348 165.965 58.1771 162.269 58.1771C158.573 58.1771 155.577 61.7348 155.577 66.1233C155.577 70.5119 158.573 74.0695 162.269 74.0695Z" fill="#A1616A"/>
<path d="M169.078 69.8561C169.411 69.4909 169.83 69.2542 170.279 69.1775C170.728 69.1007 171.187 69.1874 171.593 69.4261C172.046 69.7049 172.442 70.2694 172.34 70.8608L175.66 70.9212C176.188 70.9041 176.716 70.9616 177.233 71.0926C177.753 71.2271 178.217 71.5729 178.546 72.0703C178.586 72.1342 178.631 72.2114 178.699 72.2215C178.754 72.2225 178.808 72.2012 178.852 72.161C179.362 71.857 179.937 71.74 180.504 71.8251C182.298 71.9628 183.956 73.0279 185.363 74.3584C185.616 74.5654 185.813 74.8563 185.929 75.195C186.045 75.6419 185.906 76.203 186.212 76.5222C186.212 80.2181 187.281 83.6721 187.994 87.2739C188.122 87.9157 188.639 88.4835 188.999 88.9875C189.443 89.5462 189.805 90.1889 190.071 90.8892C190.677 92.7573 189.842 94.9547 190.431 96.8295C190.68 97.6224 191.161 98.2743 191.563 98.963C192.092 99.7584 192.427 100.712 192.53 101.718C192.556 102.168 192.508 102.622 192.53 103.062C192.568 103.668 192.663 104.266 192.813 104.846C193.055 105.93 193.308 107.013 193.572 108.095C194.002 109.842 194.562 111.727 195.881 112.658C192.697 113.3 189.341 113.928 186.308 112.614C185.885 112.443 185.483 112.204 185.114 111.905C184.019 110.978 183.489 109.392 183.017 107.894C182.491 106.214 181.956 104.504 181.848 102.716C181.849 102.148 181.782 101.582 181.647 101.036C181.339 100.062 180.515 99.4737 179.768 98.9328C178.925 98.3839 178.161 97.6784 177.505 96.8429C177.179 96.4221 176.93 95.9265 176.772 95.3867C176.614 94.847 176.552 94.2745 176.588 93.7048C176.644 93.1504 176.828 92.6162 176.845 92.0584C176.862 91.5007 176.653 90.8623 176.203 90.7145C173.885 89.8812 172.779 86.6221 172.264 83.8132C172.042 82.3615 171.942 80.887 171.967 79.4117L171.936 76.5457C171.616 76.2002 171.359 75.7811 171.18 75.3138C171.001 74.8465 170.904 74.3408 170.894 73.8276C170.925 73.5281 170.92 73.225 170.88 72.9271C170.768 72.563 170.586 72.235 170.348 71.9695C169.837 71.346 169.408 70.6333 169.078 69.8561Z" fill="#464353"/>
<path d="M161.95 78.9413C161.873 79.8284 162.043 80.7389 161.876 81.6091C161.811 81.9451 161.698 82.2811 161.616 82.5936C161.365 83.8461 161.473 85.1622 161.924 86.3331C162.374 87.4926 162.913 88.6004 163.534 89.6427C163.744 89.9984 163.917 90.3832 164.049 90.7884C164.156 91.2139 164.223 91.6523 164.247 92.0954C164.411 93.8746 164.674 95.6391 165.034 97.3772C165.351 98.8824 168.95 111.751 169.788 112.944C169.94 113.208 170.17 113.394 170.433 113.464C170.623 113.473 170.811 113.427 170.982 113.33L172.68 112.557C172.824 112.505 172.958 112.418 173.073 112.302C173.232 112.081 173.319 111.799 173.317 111.509C173.438 109.869 169.83 96.9101 169.372 95.3612C167.985 90.6842 166.14 86.1752 165.238 81.3336C164.986 79.9896 164.853 77.9199 164.024 76.8481C163.681 76.4046 163.797 76.5928 163.387 76.8246C163.18 76.9314 162.979 77.0561 162.787 77.1976C162.547 77.3958 162.347 77.6552 162.202 77.9569C162.057 78.2586 161.971 78.595 161.95 78.9413Z" fill="#464353"/>
<path d="M167.103 87.8148C167.558 90.6741 168.028 93.5267 168.495 96.386L175.139 94.3196C175.193 93.4931 174.822 92.727 174.573 91.9677C173.967 90.1634 173.953 88.1542 173.464 86.2995C173.093 84.8884 172.448 83.5914 172.1 82.1702C171.899 81.3437 171.797 80.4902 171.599 79.6536C171.386 78.832 171.125 78.0293 170.818 77.2513C170.445 76.123 169.958 75.0524 169.369 74.0627C168.52 74.4391 167.615 74.8758 167.131 75.7864C166.883 76.2994 166.741 76.8753 166.718 77.4663C166.602 79.237 167.142 81.0178 166.964 82.7783C166.78 84.455 166.827 86.156 167.103 87.8148Z" fill="#5E35B1"/>
<path d="M175.249 125.849C175.623 127.529 175.082 129.296 174.641 130.959C173.976 133.465 173.523 136.042 173.288 138.654C173.26 139.318 173.147 139.974 172.954 140.599C172.745 141.16 172.388 141.634 172.145 142.168C171.477 143.573 171.494 145.286 171.639 146.892C171.735 147.951 171.879 149.006 172.057 150.047C172.275 151.321 172.544 152.651 172.23 153.894C172.756 153.756 173.113 154.566 173.079 155.201C173.045 155.836 172.872 156.545 173.13 157.093C173.781 157.375 173.786 158.437 173.767 159.26C173.777 160.687 173.929 162.108 174.219 163.493C175.204 169.116 176.249 174.722 177.355 180.313C179.746 181.193 182.539 182.111 184.819 180.891C185.244 180.666 185.668 180.306 185.764 179.762C185.789 179.469 185.758 179.173 185.674 178.895L184.593 174.225C184.33 173.096 184.067 171.93 184.205 170.771C184.31 169.908 184.627 168.977 184.27 168.214C184.149 167.952 183.956 167.747 183.815 167.498C183.249 166.514 183.546 165.197 183.591 164.004C183.609 163.736 183.594 163.467 183.546 163.205C183.468 162.898 183.36 162.603 183.223 162.328C182.33 160.268 181.901 157.969 181.978 155.655C182.012 155.359 181.978 155.059 181.879 154.785C181.811 154.671 181.749 154.552 181.695 154.428C181.653 154.213 181.674 153.986 181.755 153.787C181.431 153.495 181.138 153.156 180.883 152.779C181.04 152.663 181.173 152.506 181.271 152.321C181.37 152.135 181.432 151.925 181.452 151.707C181.472 151.489 181.45 151.268 181.388 151.061C181.326 150.855 181.225 150.668 181.093 150.514C181.208 150.487 181.315 150.422 181.401 150.326C181.487 150.231 181.549 150.109 181.581 149.975C181.612 149.84 181.611 149.697 181.579 149.563C181.546 149.429 181.483 149.308 181.395 149.214C181.257 149.1 181.073 149.049 180.974 148.878C180.821 148.629 180.946 148.283 181.07 148.018L181.729 146.603C182.222 145.552 182.332 144.251 182.861 143.243C183.62 141.775 184.115 140.139 184.604 138.519L186.509 132.28L187.791 133.6C188.218 133.988 188.575 134.472 188.843 135.025C189.025 135.572 189.141 136.146 189.186 136.732C189.655 140.119 191.449 143.055 192.114 146.392C192.261 147.134 192.361 147.914 192.72 148.549C192.849 148.744 192.964 148.95 193.065 149.167C193.159 149.497 193.208 149.843 193.209 150.192C193.269 150.874 193.451 151.533 193.744 152.125C194.037 152.716 194.434 153.226 194.907 153.619C195.538 154.133 196.322 154.486 196.665 155.299C196.733 155.55 196.828 155.791 196.947 156.014C197.253 156.451 197.912 156.502 198.043 157.049C198.116 157.355 197.98 157.721 198.125 157.99C198.207 158.114 198.315 158.211 198.439 158.269L200.281 159.361C202.341 160.584 203.394 163.393 204.913 165.439C205.438 166.105 205.903 166.835 206.3 167.616C206.956 169.01 207.259 170.761 208.368 171.648C208.666 171.832 208.938 172.071 209.172 172.357C209.52 172.901 209.393 173.664 209.424 174.349C209.455 175.035 209.896 175.851 210.445 175.643C210.253 176.473 210.253 177.349 210.445 178.18C212.855 178.033 215.154 176.927 216.97 175.041C217.508 174.484 218.026 173.771 218.032 172.925C218.04 172.779 218.012 172.633 217.952 172.505C217.844 172.339 217.7 172.211 217.536 172.132C215.813 171.023 215.295 168.453 214.424 166.366C213.663 164.525 212.536 162.939 211.594 161.229C209.545 157.55 208.147 153.098 205.049 150.669C204.367 150.134 203.575 149.661 203.232 148.777C203.043 148.283 203.02 147.719 202.87 147.208C202.72 146.697 202.361 146.2 201.902 146.2C202.157 145.461 202.106 144.56 202.123 143.761C202.14 143.406 202.106 143.05 202.021 142.709C201.903 142.342 201.751 141.993 201.566 141.668C200.757 140.042 200.353 138.178 200.4 136.292C200.422 135.321 200.567 134.319 200.32 133.392C200.196 132.925 199.978 132.498 199.828 132.048C199.602 131.232 199.483 130.38 199.474 129.521L199.305 126.293C199.279 125.217 199.161 124.148 198.954 123.101C198.388 120.594 197.822 110.094 195.884 108.912C193.945 107.729 190.615 115.81 188.433 115.968C187.468 116.015 186.514 116.234 185.603 116.616C184.152 117.261 182.935 118.464 181.749 119.64L177.737 123.642C176.888 124.472 176.186 125.264 175.249 125.849Z" fill="#464353"/>
<path d="M155.99 57.3001C156.873 55.8688 158.39 55.1095 159.884 55.0456C161.378 54.9818 162.85 55.5395 164.188 56.3291C164.583 56.5959 165.005 56.8014 165.444 56.9406C166.152 57.112 166.938 56.8835 167.578 57.2766C168.427 57.8108 168.591 59.1716 168.517 60.3005C168.444 61.4294 168.266 62.6827 168.772 63.6604C168.952 63.9393 169.115 64.2322 169.262 64.5374C169.48 65.1186 169.352 65.7906 169.222 66.4055C168.891 66.0695 168.704 65.5621 168.41 65.1724C168.116 64.7826 167.603 64.5206 167.238 64.8129C166.873 65.1052 166.879 65.6361 166.859 66.1132C166.839 66.5903 166.738 67.1614 166.358 67.316C166.2 67.3588 166.034 67.3442 165.883 67.2741C165.732 67.2041 165.602 67.0817 165.509 66.9229C164.861 65.9821 165.122 64.4802 164.479 63.5328C164.114 62.9952 163.506 62.7331 163.169 62.1686C162.903 61.7251 162.835 61.1607 162.603 60.6835C162.371 60.2064 161.831 59.857 161.471 60.1863C161.349 60.3254 161.247 60.4878 161.169 60.6667C160.945 61.0479 160.619 61.3281 160.244 61.4623C159.869 61.5964 159.467 61.5766 159.103 61.4059C158.825 61.2031 158.524 61.0481 158.209 60.9456C158.003 60.9334 157.798 60.9898 157.617 61.1085C157.437 61.2273 157.288 61.4036 157.187 61.6176C156.984 62.0451 156.886 62.5317 156.904 63.022C156.904 63.694 157.006 64.4097 156.684 64.9473C156.561 65.1496 156.407 65.3229 156.231 65.458C155.758 65.8175 155.099 66.0594 154.663 65.6495C154.516 65.4861 154.406 65.2804 154.344 65.0521C154.283 64.8239 154.272 64.5806 154.312 64.3458C154.397 63.8782 154.509 63.4179 154.646 62.9683C154.895 61.9267 154.57 60.7541 154.841 59.773C155.126 58.8895 155.513 58.0572 155.99 57.3001Z" fill="#464353"/>
<path d="M159.576 81.0044C159.533 81.2493 159.555 81.5037 159.638 81.7335C159.722 81.89 159.836 82.0202 159.972 82.1132C160.923 82.817 162.006 83.2335 163.124 83.3261C163.276 83.3292 163.426 83.3753 163.56 83.4605C163.826 83.6688 163.843 84.1325 163.744 84.502C163.612 84.8507 163.543 85.2285 163.543 85.6108C163.625 86.313 164.327 86.6188 164.918 86.7229C165.747 86.8473 166.655 86.7834 167.312 86.1686C167.757 85.687 168.096 85.0838 168.299 84.4113C169.924 79.9796 170.493 75.0809 172.137 70.6626C172.261 70.3741 172.344 70.063 172.383 69.742C172.4 69.5813 172.381 69.418 172.327 69.2691C172.273 69.1202 172.187 68.9911 172.077 68.8953C171.772 68.6702 171.296 68.7978 171.09 68.445C170.988 68.267 170.999 68.0251 170.908 67.8369C170.719 67.4371 170.221 67.5009 169.881 67.2691C169.615 67.1011 169.431 66.755 169.134 66.6878C168.988 66.678 168.843 66.7088 168.709 66.7776C168.574 66.8464 168.456 66.9514 168.362 67.0843C167.397 68.1527 166.89 69.668 166.353 71.0994C165.532 73.2934 164.571 75.4096 163.478 77.4294C163.605 77.1942 162.866 75.4135 162.578 75.3362C162.071 75.2153 161.423 76.2703 161.149 76.6634C160.287 77.9034 159.742 79.4092 159.576 81.0044Z" fill="#5E35B1"/>
<path opacity="0.1" d="M169.856 67.5815C169.653 67.5856 169.453 67.6438 169.271 67.752C169.089 67.8602 168.93 68.0155 168.806 68.2065C168.503 68.6735 168.444 69.2917 168.367 69.8864C168.11 71.7706 167.544 73.5764 166.701 75.2018" fill="black"/>
<path opacity="0.1" d="M171.299 68.9221C171.018 68.9295 170.744 69.0236 170.504 69.195C170.263 69.3665 170.064 69.6094 169.927 69.8999C169.739 70.4283 169.623 70.9884 169.581 71.5596C169.339 72.8262 168.871 74.0164 168.209 75.0506" fill="black"/>
<path d="M238.55 134.608V130.435C238.549 127.363 237.521 124.417 235.691 122.246C233.861 120.074 231.38 118.854 228.793 118.854H89.9988C87.4116 118.854 84.9303 120.074 83.1006 122.246C81.271 124.417 80.2427 127.363 80.2419 130.435V138.129L238.55 134.608Z" fill="#33323D"/>
<path d="M128.61 113.962C128.61 113.962 128.214 143.146 132.572 152.748C136.929 162.351 138.797 204.125 138.797 204.125C138.797 204.125 184.48 209.736 216.314 197.405C248.148 185.074 315.885 180.031 315.885 180.031L304.47 88.6784C304.47 88.6784 248.077 84.3844 215.997 102.551C183.917 120.718 128.61 113.962 128.61 113.962Z" fill="#8DD070"/>
<path opacity="0.1" d="M128.61 113.962C128.61 113.962 128.214 143.146 132.572 152.748C136.929 162.351 138.797 204.125 138.797 204.125C138.797 204.125 184.48 209.736 216.314 197.405C248.148 185.074 315.885 180.031 315.885 180.031L304.47 88.6784C304.47 88.6784 248.077 84.3844 215.997 102.551C183.917 120.718 128.61 113.962 128.61 113.962Z" fill="black"/>
<path d="M138.721 124.623C138.721 124.623 137.292 148.703 140.877 156.397C144.462 164.091 144.629 198.44 144.629 198.44C144.629 198.44 185.742 200.704 214.987 188.884C244.232 177.064 305.687 169.397 305.687 169.397L298.704 94.6892C298.704 94.6892 247.854 94.0676 218.176 110.706C188.498 127.344 138.721 124.623 138.721 124.623Z" fill="#8DD070"/>
<path opacity="0.1" d="M217.724 175.206C223.574 174.341 227.049 161.563 225.487 146.666C223.924 131.769 217.915 120.394 212.065 121.259C206.216 122.125 202.74 134.902 204.303 149.799C205.866 164.696 211.875 176.071 217.724 175.206Z" fill="black"/>
<path opacity="0.2" d="M273.553 44.1764C273.553 44.1764 218.767 60.6399 192.932 89.6191C167.097 118.598 112.71 132.32 112.71 132.32C112.71 132.32 119.875 160.238 126.502 167.791C133.129 175.344 145.699 214.426 145.699 214.426C145.699 214.426 190.626 203.117 217.734 179.772C244.843 156.428 308.022 126.944 308.022 126.944L273.553 44.1764Z" fill="black"/>
<path d="M111.887 128.14C111.887 128.14 119.049 156.061 125.67 163.614C132.292 171.167 144.867 210.247 144.867 210.247C144.867 210.247 189.8 198.94 216.911 175.596C244.022 152.251 307.196 122.778 307.196 122.778L272.727 40C272.727 40 217.944 56.4635 192.109 85.4428C166.273 114.422 111.887 128.14 111.887 128.14Z" fill="#8DD070"/>
<path opacity="0.1" d="M111.887 128.14C111.887 128.14 119.049 156.061 125.67 163.614C132.292 171.167 144.867 210.247 144.867 210.247C144.867 210.247 189.8 198.94 216.911 175.596C244.022 152.251 307.196 122.778 307.196 122.778L272.727 40C272.727 40 217.944 56.4635 192.109 85.4428C166.273 114.422 111.887 128.14 111.887 128.14Z" fill="black"/>
<path d="M124.255 134.605C124.255 134.605 129.119 158.047 134.521 164.061C139.923 170.075 148.953 202.7 148.953 202.7C148.953 202.7 188.665 189.872 213.445 167.965C238.224 146.059 294.739 116.401 294.739 116.401L268.788 47.8185C268.788 47.8185 220.233 65.7503 196.285 92.4011C172.337 119.052 124.255 134.605 124.255 134.605Z" fill="#8DD070"/>
<path opacity="0.1" d="M212.529 153.961C217.872 151.006 217.878 137.579 212.541 123.97C207.204 110.361 198.545 101.724 193.201 104.679C187.857 107.634 187.852 121.061 193.189 134.67C198.526 148.279 207.185 156.916 212.529 153.961Z" fill="black"/>
<path opacity="0.1" d="M242.296 138.704V254.621C242.296 255.937 242.078 257.241 241.653 258.457C241.229 259.673 240.607 260.778 239.823 261.709C239.039 262.64 238.108 263.378 237.084 263.882C236.059 264.385 234.961 264.644 233.852 264.644H88.6887C86.4505 264.643 84.3042 263.586 82.7218 261.707C81.1394 259.827 80.2505 257.278 80.2505 254.621V127.018C84.4102 128.853 84.4102 128.853 88.6887 128.698H233.852C236.089 128.698 238.234 129.752 239.817 131.628C241.4 133.504 242.292 136.049 242.296 138.704Z" fill="black"/>
<path d="M242.296 140.179V256.096C242.296 258.754 241.406 261.304 239.822 263.183C238.239 265.063 236.091 266.118 233.852 266.118H88.6887C86.4505 266.117 84.3042 265.061 82.7218 263.182C81.1394 261.302 80.2505 258.753 80.2505 256.096V128.49C84.4102 130.321 84.4102 130.321 88.6887 130.17H233.852C236.089 130.17 238.235 131.224 239.818 133.1C241.401 134.977 242.293 137.523 242.296 140.179Z" fill="#1976D2"/>
<path opacity="0.1" d="M241.883 183.035V220.105H211.605C207.502 220.039 203.585 218.057 200.702 214.588C197.82 211.12 196.204 206.443 196.204 201.57C196.204 196.697 197.82 192.02 200.702 188.551C203.585 185.082 207.502 183.1 211.605 183.035H241.883Z" fill="black"/>
<path d="M242.296 182.047V219.123H212.018C207.915 219.058 203.998 217.076 201.116 213.607C198.233 210.139 196.617 205.462 196.617 200.589C196.617 195.716 198.233 191.039 201.116 187.57C203.998 184.101 207.915 182.119 212.018 182.054L242.296 182.047Z" fill="#33323D"/>
<path opacity="0.1" d="M213.47 208.798C216.832 208.798 219.557 205.563 219.557 201.571C219.557 197.58 216.832 194.344 213.47 194.344C210.108 194.344 207.383 197.58 207.383 201.571C207.383 205.563 210.108 208.798 213.47 208.798Z" fill="black"/>
<path d="M213.883 207.817C217.245 207.817 219.97 204.582 219.97 200.59C219.97 196.599 217.245 193.363 213.883 193.363C210.522 193.363 207.797 196.599 207.797 200.59C207.797 204.582 210.522 207.817 213.883 207.817Z" fill="#5E35B1"/>
<path d="M294.852 181.728C295.093 184.822 293.121 187.826 293.695 190.856C293.82 191.505 294.054 192.116 294.139 192.772C294.377 194.573 293.474 196.276 292.611 197.781L285.197 210.697C284.9 211.265 284.545 211.786 284.139 212.249C282.724 213.748 280.596 213.593 278.734 214.04C277.425 214.355 276.19 215.004 275.112 215.942C275.067 215.987 275.039 216.052 275.032 216.122C275.026 216.192 275.042 216.262 275.078 216.318C275.386 216.815 275.794 217.214 276.264 217.476C276.735 217.738 277.253 217.856 277.772 217.82C277.968 218.126 277.772 218.572 277.489 218.791C277.09 219.127 276.544 219.207 276.465 220.007C276.437 220.286 276.484 220.569 276.601 220.813C276.899 221.357 277.364 221.741 277.897 221.885C280.463 222.816 283.236 221.18 285.158 218.952C287.079 216.724 288.457 213.912 290.342 211.644C291.386 210.391 292.572 209.316 293.647 208.1C295.792 205.674 297.459 202.724 299.069 199.77C299.553 198.88 300.039 197.966 300.243 196.935C300.447 195.903 300.35 194.861 300.58 193.864C300.88 192.553 301.686 191.512 302.357 190.413C303.673 188.263 304.55 185.632 304.377 182.984C304.205 180.337 302.821 177.719 300.716 176.819C300.063 176.508 299.343 176.456 298.664 176.671C297.801 176.987 297.164 177.833 296.576 178.643L295.161 180.575C294.808 180.999 294.529 181.501 294.34 182.054C294.25 182.331 294.228 182.633 294.278 182.924C294.328 183.216 294.448 183.484 294.623 183.697" fill="#FBBEBE"/>
<path opacity="0.05" d="M294.852 181.728C295.093 184.822 293.121 187.826 293.695 190.856C293.82 191.505 294.054 192.116 294.139 192.772C294.377 194.573 293.474 196.276 292.611 197.781L285.197 210.697C284.9 211.265 284.545 211.786 284.139 212.249C282.724 213.748 280.596 213.593 278.734 214.04C277.425 214.355 276.19 215.004 275.112 215.942C275.067 215.987 275.039 216.052 275.032 216.122C275.026 216.192 275.042 216.262 275.078 216.318C275.386 216.815 275.794 217.214 276.264 217.476C276.735 217.738 277.253 217.856 277.772 217.82C277.968 218.126 277.772 218.572 277.489 218.791C277.09 219.127 276.544 219.207 276.465 220.007C276.437 220.286 276.484 220.569 276.601 220.813C276.899 221.357 277.364 221.741 277.897 221.885C280.463 222.816 283.236 221.18 285.158 218.952C287.079 216.724 288.457 213.912 290.342 211.644C291.386 210.391 292.572 209.316 293.647 208.1C295.792 205.674 297.459 202.724 299.069 199.77C299.553 198.88 300.039 197.966 300.243 196.935C300.447 195.903 300.35 194.861 300.58 193.864C300.88 192.553 301.686 191.512 302.357 190.413C303.673 188.263 304.55 185.632 304.377 182.984C304.205 180.337 302.821 177.719 300.716 176.819C300.063 176.508 299.343 176.456 298.664 176.671C297.801 176.987 297.164 177.833 296.576 178.643L295.161 180.575C294.808 180.999 294.529 181.501 294.34 182.054C294.25 182.331 294.228 182.633 294.278 182.924C294.328 183.216 294.448 183.484 294.623 183.697" fill="black"/>
<path d="M300.464 261.391C298.845 262.564 296.827 262.634 294.946 262.362C294.643 262.318 294.284 262.291 294.097 262.57C293.814 262.973 294.148 263.578 294.493 263.891C295.603 264.88 296.907 265.517 298.282 265.742C299.51 265.949 300.749 266.046 301.989 266.034C305.384 266.105 308.78 266.172 312.122 265.594C312.32 265.576 312.513 265.51 312.688 265.399C312.903 265.22 313.053 264.949 313.107 264.643C313.336 263.609 312.894 262.5 312.227 261.781C311.559 261.062 310.701 260.662 309.864 260.275L306.921 258.915C306.231 258.596 305.124 257.749 304.374 257.816C302.965 257.937 301.632 260.578 300.464 261.391Z" fill="#3F3D56"/>
<path opacity="0.05" d="M300.464 261.391C298.845 262.564 296.827 262.634 294.946 262.362C294.643 262.318 294.284 262.291 294.097 262.57C293.814 262.973 294.148 263.578 294.493 263.891C295.603 264.88 296.907 265.517 298.282 265.742C299.51 265.949 300.749 266.046 301.989 266.034C305.384 266.105 308.78 266.172 312.122 265.594C312.32 265.576 312.513 265.51 312.688 265.399C312.903 265.22 313.053 264.949 313.107 264.643C313.336 263.609 312.894 262.5 312.227 261.781C311.559 261.062 310.701 260.662 309.864 260.275L306.921 258.915C306.231 258.596 305.124 257.749 304.374 257.816C302.965 257.937 301.632 260.578 300.464 261.391Z" fill="black"/>
<path d="M302.527 215.004C301.301 216.939 300.034 219.174 300.336 221.569C300.5 222.86 301.109 223.999 301.556 225.191C302.162 226.811 302.478 228.551 302.79 230.285C303.248 232.818 303.709 235.358 303.99 237.932C304.309 240.838 302.807 249.248 302.668 252.175C302.634 252.88 302.563 253.643 302.15 254.15C301.989 254.352 301.774 254.513 301.7 254.775C301.657 255.028 301.692 255.29 301.799 255.515C302.49 257.362 303.902 258.74 305.478 259.526C307.054 260.312 310.854 261.67 312.572 261.74C312.798 261.77 313.028 261.734 313.24 261.636C313.468 261.471 313.648 261.226 313.755 260.934C314.986 258.139 313.803 248.2 313.82 245.045C313.837 242.414 314.36 239.8 314.264 237.173C314.185 235.063 313.698 233 313.537 230.896C313.254 227.449 313.786 223.985 314.321 220.578C314.728 217.964 315.139 215.35 315.662 212.77C315.982 211.194 316.352 209.605 317.077 208.237C317.643 207.152 318.438 206.245 319.097 205.213C320.927 202.364 321.74 198.775 321.361 195.221C321.321 194.885 317.117 196.488 316.746 196.679C315.233 197.44 313.842 198.502 312.631 199.821C311.658 200.923 310.891 202.394 310.039 203.627C308.834 205.372 307.644 207.13 306.468 208.899C305.127 210.922 303.813 212.957 302.527 215.004Z" fill="#464353"/>
<path opacity="0.05" d="M302.527 214.887C301.301 216.822 300.034 219.06 300.336 221.452C300.5 222.745 301.109 223.884 301.556 225.077C302.162 226.693 302.478 228.437 302.79 230.167C303.248 232.704 303.709 235.244 303.99 237.815C304.309 240.724 302.807 249.131 302.668 252.057C302.634 252.763 302.563 253.529 302.15 254.036C301.989 254.234 301.774 254.396 301.7 254.658C301.657 254.91 301.692 255.173 301.799 255.397C302.49 257.248 303.902 258.622 305.478 259.429C307.054 260.235 310.854 260.937 312.572 261.005C312.798 261.034 313.028 260.999 313.24 260.901C313.469 260.737 313.649 260.493 313.755 260.202C314.986 257.406 313.803 248.106 313.82 244.948C313.837 242.314 314.36 239.703 314.264 237.072C314.185 234.962 313.698 232.899 313.537 230.799C313.254 227.348 313.786 223.884 314.321 220.477C314.728 217.867 315.139 215.253 315.662 212.669C315.982 211.093 316.352 209.504 317.077 208.137C317.643 207.051 318.438 206.144 319.097 205.113C320.928 202.264 321.741 198.675 321.361 195.12C321.321 194.784 317.117 196.387 316.746 196.578C315.234 197.341 313.842 198.405 312.631 199.723C311.658 200.822 310.891 202.294 310.039 203.527C308.834 205.272 307.644 207.03 306.468 208.802C305.127 210.809 303.813 212.837 302.527 214.887Z" fill="black"/>
<path d="M288.893 172.38C292.686 172.38 295.761 168.73 295.761 164.226C295.761 159.722 292.686 156.071 288.893 156.071C285.1 156.071 282.025 159.722 282.025 164.226C282.025 168.73 285.1 172.38 288.893 172.38Z" fill="#FBBEBE"/>
<path d="M295.079 163.883C295.713 165.085 296.545 166.123 297.525 166.934C298.504 167.746 299.612 168.315 300.781 168.607L300.263 170.842C299.368 174.679 298.364 178.737 295.868 181.398C296.151 180.098 295.789 178.71 295.172 177.582C294.555 176.453 293.689 175.566 292.84 174.689L288.887 170.623C288.773 170.513 288.677 170.378 288.604 170.227C288.507 169.94 288.507 169.62 288.604 169.333C289.108 167.472 290.545 166.309 291.717 165.052C292.305 164.403 292.83 163.677 293.282 162.889C294.071 161.551 294.561 162.895 295.079 163.883Z" fill="#FBBEBE"/>
<path d="M279.846 156.028L279.691 154.496C280.775 154.832 281.805 153.736 282.498 152.604C283.191 151.472 283.834 150.138 284.889 149.664C286.171 149.093 287.529 150 288.754 150.766C290.126 151.67 291.632 152.252 293.189 152.48C293.437 152.489 293.683 152.537 293.921 152.621C294.719 152.957 295.099 154.146 295.215 155.225C295.331 156.303 295.3 157.449 295.693 158.41C295.976 159.139 296.502 159.68 296.825 160.399C297.674 162.328 296.853 164.965 297.739 166.857L295.537 164.461C295.336 164.243 295.053 164.014 294.83 164.199C294.654 164.347 294.64 164.666 294.569 164.921C294.357 165.667 293.571 165.889 293.002 165.593C292.433 165.298 292.017 164.656 291.587 164.071C290.614 162.707 289.453 161.508 288.095 160.926C287.5 160.662 286.864 160.551 286.23 160.601C285.595 160.651 284.977 160.86 284.416 161.215C283.389 161.904 282.637 163.51 281.377 163.567C279.651 163.645 278.932 159.828 278.135 158.319C278.427 158.058 278.632 157.684 278.715 157.261C278.798 156.838 278.752 156.395 278.587 156.008C278.703 155.95 279.821 155.793 279.846 156.028Z" fill="#464353"/>
<path d="M194.902 108.354C194.35 108.937 193.84 109.573 193.376 110.256C192.91 110.948 192.662 111.812 192.675 112.698C192.677 112.955 192.746 113.205 192.873 113.414C192.937 113.514 193.027 113.587 193.128 113.624C193.229 113.661 193.338 113.659 193.439 113.619C193.552 113.55 193.65 113.448 193.722 113.323C194.021 112.897 194.338 112.488 194.672 112.1C194.794 111.956 194.955 111.805 195.119 111.858C195.193 111.889 195.259 111.941 195.312 112.009C195.502 112.205 195.641 112.462 195.711 112.749C195.81 113.263 195.558 113.777 195.272 114.18C194.986 114.583 194.65 114.97 194.534 115.477C194.49 115.611 194.49 115.76 194.534 115.894C194.588 115.99 194.665 116.067 194.754 116.115C195.16 116.38 195.609 116.536 196.071 116.572C196.532 116.608 196.995 116.523 197.426 116.324C197.992 116.051 198.495 115.584 199.078 115.343C199.331 115.261 199.575 115.148 199.808 115.007C199.975 114.875 200.118 114.705 200.229 114.507C200.341 114.309 200.418 114.087 200.456 113.854C200.53 113.388 200.544 112.911 200.499 112.44C200.428 110.614 200.099 108.816 199.525 107.121C199.492 107.011 199.435 106.914 199.361 106.839C199.276 106.777 199.178 106.746 199.078 106.748C198.354 106.657 197.165 106.217 196.466 106.536C196.222 106.695 196.011 106.918 195.849 107.188C195.719 107.359 194.902 108.129 194.902 108.354Z" fill="#A1616A"/>
<path d="M194.672 107.595C194.672 106.775 193.823 104.796 195.173 104.665C195.173 103.788 194.129 103.244 194.324 102.313C194.387 102.004 194.607 101.752 194.633 101.436C194.718 100.539 193.354 100.052 193.58 99.1915C193.665 98.8555 193.965 98.6606 194.03 98.328C194.183 97.5518 193.014 97.2058 192.992 96.4095C192.992 96.1407 193.119 95.8887 193.108 95.6199C193.108 95.2839 192.861 95.0285 192.726 94.7362C192.372 93.987 192.544 92.8278 191.899 92.4414C192.327 92.4851 192.465 91.7325 192.29 91.2722C192.114 90.8118 191.755 90.412 191.752 89.9013C191.773 89.7163 191.773 89.5286 191.752 89.3436C191.633 88.853 190.957 88.8127 190.844 88.3356C190.829 88.1525 190.824 87.9684 190.83 87.7846C190.784 87.4049 190.456 87.163 190.148 87.0555C189.827 86.9909 189.519 86.8601 189.237 86.6691C189.038 86.491 188.809 86.1953 188.597 86.3331C188.518 86.3902 188.478 86.4977 188.419 86.5784C188.164 86.9312 187.677 86.7766 187.358 86.5179C186.412 85.7552 185.943 84.3877 185.742 83.0538C185.541 81.7199 185.547 80.3424 185.295 79.0219C185.218 78.6104 185.116 78.2061 184.989 77.8124C184.882 77.4764 184.536 76.9489 184.514 76.6095C184.463 75.8367 185.81 76.3643 186.322 76.4415C186.819 76.4992 187.311 76.6117 187.791 76.7775C188.303 77.0072 188.804 77.2685 189.293 77.5604C191.336 78.6322 193.804 78.7632 195.445 80.5641C195.985 81.1555 196.441 81.9316 197.143 82.2004C197.465 82.2737 197.782 82.3713 198.093 82.4927C198.872 82.9261 198.993 84.1525 199.418 85.0395C199.551 85.2738 199.668 85.5211 199.766 85.7787C199.848 86.0826 199.886 86.4006 199.879 86.7195L199.938 89.0479C200.035 92.9488 200.131 96.8597 199.78 100.737C199.667 102.017 199.497 103.334 199.817 104.564C199.902 104.9 200.021 105.216 200.1 105.555C200.17 105.953 200.206 106.358 200.207 106.765L200.253 108.273C200.268 108.391 200.246 108.511 200.19 108.609C200.143 108.655 200.088 108.687 200.028 108.704C199.969 108.721 199.907 108.722 199.848 108.707C198.079 108.519 196.291 107.336 194.621 108.052" fill="#464353"/>
<path d="M275.381 223.511C286.94 223.511 296.31 221.903 296.31 219.92C296.31 217.936 286.94 216.328 275.381 216.328C263.823 216.328 254.453 217.936 254.453 219.92C254.453 221.903 263.823 223.511 275.381 223.511Z" fill="#504F60"/>
<path d="M293.386 220.094C293.019 218.223 292.789 216.58 292.789 216.58C292.789 216.58 292.874 214.544 292.105 213.015V212.504V208.741C292.324 208.058 292.592 207.398 292.905 206.769C293.471 205.586 292.905 201.252 292.905 201.252C292.905 201.252 290.792 195.14 291.304 191.263C291.816 187.386 286.963 174.047 286.963 174.047C286.993 172.761 287.146 171.482 287.419 170.237C287.47 169.975 287.491 169.706 287.481 169.437C287.481 169.404 287.481 169.373 287.481 169.34C287.481 169.306 287.481 169.36 287.481 169.37C287.407 166.813 285.704 162.022 285.704 162.022L285.933 152.89C285.933 152.89 287.02 147.514 285.248 140.273C284.629 137.75 284.232 135.731 283.981 134.172C283.952 133.997 283.924 133.836 283.901 133.664C287.549 132.992 290.336 132.455 290.336 132.455C290.336 132.455 288.219 121.941 286.79 120.1C285.361 118.259 284.218 112.477 284.218 112.477C284.218 112.477 283.474 105.055 284.677 102.884C285.879 100.714 286.049 96.9707 286.049 96.9707C286.049 96.9707 288.791 94.6187 289.136 93.5536C289.482 92.4885 290.05 90.1366 290.05 88.8901C290.05 87.6435 289.708 86.5381 289.821 85.8662C289.934 85.1942 289.02 82.7112 289.479 81.5285C289.597 81.1652 289.659 80.7791 289.66 80.3895C289.661 80.3783 289.661 80.3671 289.66 80.3559C289.664 79.321 289.583 78.288 289.419 77.2715C288.626 76.4763 287.7 75.8889 286.703 75.5479L286.643 75.2657L286.488 74.5265C286.401 74.4583 286.311 74.3955 286.219 74.3383V74.0695L286.193 73.0011L286.624 70.6021C287.472 66.4291 282.778 65.8075 282.778 65.8075C282.493 65.1674 282.02 64.6745 281.448 64.4232C280.506 64.0301 281.292 70.6995 281.731 71.143C282.062 71.479 283.086 73.5555 283.582 74.5836L283.661 74.7516C283.583 74.8343 283.511 74.9242 283.446 75.0204L283.624 76.4685L283.652 76.6903C283.341 77.149 283.089 77.6596 282.902 78.2056C282.902 78.2056 283.751 79.3211 283.59 80.5575C283.429 81.794 283.853 83.363 283.873 83.447C283.822 83.3765 283.219 82.6037 282.617 82.7918C282.014 82.98 280.33 83.5814 280.33 83.5814C280.33 83.5814 279.074 83.8435 279.198 84.1728C279.323 84.502 278.349 85.9468 278.349 85.9468L274.971 82.1434C274.937 82.0291 274.9 81.9149 274.872 81.8074C274.734 81.259 274.639 80.6966 274.589 80.1274C274.957 80.0235 275.318 79.8877 275.67 79.7209C276.025 79.5762 276.345 79.3318 276.604 79.0086C276.946 78.5281 277.011 77.8763 277.15 77.2782C277.416 76.109 277.999 75.0708 278.403 73.9586C279.088 72.0794 279.309 70.0074 279.04 67.9847C278.988 67.3614 278.81 66.7621 278.522 66.2376C277.97 65.3371 276.969 64.9709 276.241 64.2519C275.514 63.5329 275.044 62.4342 274.195 61.8999C273.429 61.4128 272.498 61.4699 271.632 61.6379C269.941 61.969 268.316 62.6708 266.841 63.7076C266.349 64.0436 265.805 64.4568 265.239 64.3325C264.753 64.2284 264.391 63.768 264.085 63.3245C264.088 63.3062 264.093 63.2882 264.099 63.2708C264.085 63.2544 264.073 63.2364 264.062 63.217C263.704 64.1606 263.525 65.1859 263.536 66.2208C263.536 66.3821 263.536 66.5568 263.553 66.7012V66.8692C263.553 66.9163 263.553 66.9633 263.553 67.007C263.553 67.0786 263.544 67.1499 263.527 67.2187C263.456 67.4242 263.348 67.6088 263.211 67.7596C263.107 67.8997 263.012 68.0491 262.928 68.2065C262.928 68.1527 262.956 68.099 262.973 68.0418C262.757 68.416 262.635 68.8553 262.622 69.3085C262.606 69.6385 262.697 69.963 262.877 70.2157C263.046 70.411 263.231 70.5866 263.428 70.7399C263.361 71.1834 263.327 71.6331 263.327 72.0838C263.333 73.4199 263.63 74.7314 264.188 75.8915C264.746 77.0516 265.547 78.0211 266.513 78.7062C266.552 78.8171 266.589 78.9313 266.626 79.0422C267.059 80.3862 267.384 81.9653 267.24 83.4101C267.24 83.5142 267.215 83.6217 267.2 83.7259C267.186 83.8301 267.116 83.8368 267.079 83.8939C267.079 83.8939 261.496 83.9611 260.183 82.5499C258.87 81.1388 256.866 86.0006 256.866 86.0006C256.866 86.0006 254.866 86.4609 254.464 86.0006C254.062 85.5402 251.722 85.9367 251.722 85.9367C250.763 84.9243 249.516 84.3836 248.233 84.4248C247.456 83.7235 246.598 83.1578 245.686 82.7448L245.624 82.7179C245.221 82.5437 244.791 82.4794 244.365 82.5298C244.365 82.5298 241.62 79.8418 240.819 78.3904C240.018 76.9389 236.207 71.5798 236.19 71.5563V71.2976L236.147 70.5181C236.034 70.5392 235.92 70.5504 235.805 70.5517C235.785 70.4744 235.757 70.3837 235.728 70.2796C235.509 69.5192 235.238 68.781 234.919 68.0721C234.919 68.0721 234.919 67.0876 235.16 66.839C235.4 66.5904 235.061 62.9785 235.061 62.9785C235.061 62.9785 232.587 56.1142 230.372 61.238C230.372 61.238 226.184 64.5543 229.698 68.4182C229.698 68.4182 231.113 69.2245 231.3 69.8629C231.43 70.2762 231.906 71.4354 232.225 72.2149L232.37 72.5508L232.33 72.5912L232.381 73.2363L232.404 73.4849C231.741 73.9318 231.291 74.3753 231.402 74.7079C231.597 75.2771 231.731 75.8731 231.801 76.4819C231.801 76.4819 236.662 83.7125 237.29 86.8002C237.29 86.8002 250.327 95.9996 254.614 96.6548L253.856 101.241C253.745 102.486 253.688 103.736 253.686 104.987C253.742 105.972 253.171 110.441 253.171 110.441C253.171 110.441 252.427 117.013 251.798 117.933C251.17 118.854 251.283 122.795 251.283 122.795C251.135 124.682 250.851 126.55 250.434 128.379C249.806 130.875 250.262 133.967 250.262 133.967C250.262 133.967 248.091 139.88 253.292 135.872C253.292 135.872 255.839 135.684 258.788 135.563C258.788 135.677 258.788 135.794 258.788 135.899C258.788 136.349 258.788 136.836 258.768 137.347C258.728 140.733 258.711 145.41 258.841 148.932C259.071 155.174 260.672 167.529 260.672 167.529V173.748C260.569 174.331 260.518 174.926 260.519 175.522C260.486 177.71 260.976 179.865 261.934 181.734L262.336 185.874C262.336 185.874 263.276 188.602 263.293 190.242C263.289 190.374 263.276 190.505 263.253 190.635C263.216 190.844 263.201 191.057 263.208 191.27C263.154 193.151 264.108 197.654 264.108 197.654C264.108 197.654 264.164 202.186 264.736 202.452C265.225 202.677 264.082 205.062 263.743 205.748C263.733 205.706 263.727 205.663 263.723 205.62L263.652 205.754C263.534 206.121 263.474 206.511 263.474 206.903C263.441 207.213 263.484 207.527 263.596 207.809C263.708 208.091 263.886 208.329 264.108 208.496C265.194 209.286 265.777 209.941 264.855 210.203C264.515 210.265 264.179 210.35 263.847 210.455C263.847 210.405 263.813 210.351 263.799 210.304C263.669 210.364 263.56 210.476 263.492 210.62C263.423 210.765 263.399 210.933 263.423 211.097C263.432 211.63 263.547 212.153 263.76 212.622C264.673 215.055 265.307 215.982 265.307 215.982L265.746 215.925C265.681 216.124 265.596 216.312 265.491 216.486C265.324 216.768 265.103 216.998 264.846 217.158C264.606 217.328 264.339 217.437 264.062 217.477C263.752 217.489 263.448 217.578 263.169 217.739C262.89 217.9 262.643 218.129 262.444 218.411C261.878 219.288 261.516 220.481 262.642 221.529L266.731 223.209C266.731 223.209 273.765 224.294 273.392 222.42C273.018 220.545 272.792 218.905 272.792 218.905C272.822 217.76 272.628 216.623 272.226 215.582C272.152 215.412 272.069 215.248 271.977 215.092L272.226 215.061C272.226 215.061 272.741 210.919 273.426 210.132C273.584 209.951 273.621 209.796 273.584 209.702C273.655 209.477 273.474 209.346 273.245 209.269L273.194 209.434C272.97 209.376 272.741 209.345 272.512 209.343C272.512 209.343 272.283 207.176 273.027 206.386C273.087 206.296 273.131 206.192 273.155 206.081C273.18 205.97 273.186 205.855 273.171 205.741C273.177 205.444 273.15 205.147 273.092 204.857C273.084 204.876 273.076 204.894 273.066 204.911C272.693 202.942 271.425 199.814 271.425 199.814C271.425 199.814 271.369 197.845 271.827 197.056C272.285 196.266 271.768 186.344 271.768 186.344C271.768 186.344 271.94 181.55 271.425 179.315C270.91 177.081 272.053 174.45 272.053 174.45C272.053 174.45 272.053 174.4 272.053 174.309V174.275L271.988 173.519C271.987 173.535 271.987 173.551 271.988 173.566C271.872 172.296 271.654 169.995 271.493 168.933C271.264 167.421 271.552 160.197 271.552 160.197L272.58 157.106L274.411 162.432L276.355 169.528C276.355 169.528 277.317 171.026 277.339 172.552C277.339 172.626 277.339 172.7 277.339 172.774C277.324 172.931 277.316 173.089 277.317 173.247C277.282 174.144 277.489 175.03 277.908 175.777C277.908 175.777 278.423 179.137 279.224 179.981C280.025 180.824 280.025 182.477 280.025 182.477C280.025 182.477 280.995 187.342 281.439 188.189C281.824 188.908 281.844 190.877 281.841 191.492C281.841 191.602 281.841 191.666 281.841 191.666C281.841 191.666 281.977 193.407 281.971 194.865C281.971 195.046 281.971 195.221 281.971 195.386C281.973 195.373 281.973 195.361 281.971 195.349C281.971 195.747 281.931 196.144 281.853 196.531L281.836 196.599C281.836 196.515 281.836 196.434 281.855 196.353C281.657 197.344 281.561 198.359 281.572 199.377C281.547 201.124 281.771 203.194 282.662 204.417C284.207 206.52 285.178 206.258 285.178 206.258C285.178 206.258 284.436 208.886 283.519 209.413C283.485 209.433 283.452 209.458 283.423 209.487C283.423 209.434 283.406 209.383 283.4 209.333C283.298 209.464 283.22 209.619 283.172 209.788C283.123 209.957 283.104 210.136 283.117 210.314C283.052 211.47 283.666 213.338 284.249 214.208C284.466 214.46 284.731 214.644 285.022 214.746C284.976 214.784 284.928 214.819 284.878 214.85C284.776 214.916 284.671 214.975 284.563 215.028C284.415 215.103 284.257 215.152 284.097 215.172C283.786 215.182 283.481 215.27 283.202 215.432C282.923 215.593 282.676 215.823 282.478 216.106C281.912 216.98 281.55 218.173 282.676 219.221L286.765 220.901C286.765 220.901 293.754 221.966 293.386 220.094Z" fill="url(#paint1_linear)"/>
<path d="M266.53 223.199L262.568 221.519C261.476 220.471 261.824 219.278 262.376 218.401C262.566 218.121 262.804 217.893 263.074 217.732C263.345 217.571 263.641 217.481 263.943 217.467C264.212 217.426 264.469 217.317 264.699 217.148C264.95 216.986 265.165 216.755 265.327 216.476C265.616 215.931 265.772 215.302 265.777 214.658C265.777 214.658 270.124 213.146 271.312 214.658C271.524 214.932 271.701 215.241 271.838 215.575C272.233 216.619 272.427 217.754 272.404 218.898C272.404 218.898 272.625 220.538 272.984 222.413C273.344 224.288 266.53 223.199 266.53 223.199Z" fill="#2D293D"/>
<path d="M285.896 220.881L281.935 219.201C280.843 218.152 281.191 216.96 281.742 216.086C281.931 215.805 282.168 215.576 282.438 215.415C282.709 215.254 283.005 215.164 283.307 215.152C283.464 215.133 283.617 215.084 283.76 215.007C283.865 214.955 283.967 214.896 284.066 214.829C285.172 214.107 285.144 212.333 285.144 212.333C285.144 212.333 289.487 210.821 290.679 212.333C290.838 212.538 290.978 212.763 291.095 213.005C291.839 214.534 291.757 216.573 291.757 216.573C291.757 216.573 291.977 218.216 292.323 220.088C292.668 221.959 285.896 220.881 285.896 220.881Z" fill="#2D293D"/>
<path opacity="0.1" d="M271.315 214.655C271.527 214.928 271.704 215.237 271.841 215.572L265.333 216.469C265.622 215.924 265.778 215.295 265.783 214.651C265.783 214.651 270.126 213.143 271.315 214.655Z" fill="black"/>
<path opacity="0.1" d="M291.1 213.012V214.46C290.087 216.439 285.189 216.005 283.766 215.014C283.87 214.962 283.972 214.902 284.071 214.836C285.178 214.114 285.149 212.34 285.149 212.34C285.149 212.34 289.493 210.828 290.684 212.34C290.844 212.544 290.983 212.77 291.1 213.012Z" fill="black"/>
<path d="M291.873 206.769C291.57 207.4 291.311 208.06 291.1 208.741V213.932C289.991 216.099 284.238 215.377 283.46 214.194C282.682 213.012 281.87 209.934 282.744 209.4C283.618 208.866 284.348 206.245 284.348 206.245C284.348 206.245 283.406 206.507 281.912 204.404C280.418 202.3 280.862 197.637 281.14 196.521C281.417 195.406 281.14 191.659 281.14 191.659C281.14 191.659 281.196 189.029 280.755 188.175C280.313 187.322 279.371 182.463 279.371 182.463C279.371 182.463 279.371 180.82 278.596 179.967C277.82 179.114 277.322 175.76 277.322 175.76C276.869 174.922 276.674 173.924 276.771 172.935C276.935 171.292 275.828 169.518 275.828 169.518L273.946 162.418L272.175 157.096L271.179 160.184C271.179 160.184 270.896 167.411 271.125 168.92C271.354 170.428 271.691 174.44 271.691 174.44C271.691 174.44 270.585 177.067 271.083 179.302C271.581 181.536 271.4 186.337 271.4 186.337C271.4 186.337 271.898 196.256 271.453 197.045C271.009 197.835 271.066 199.807 271.066 199.807C271.066 199.807 273.33 205.586 272.616 206.376C271.903 207.165 272.118 209.333 272.118 209.333C272.118 209.333 273.666 209.333 273.004 210.122C272.342 210.912 271.841 215.051 271.841 215.051L265.149 215.982C265.149 215.982 264.538 215.065 263.652 212.622C262.766 210.179 263.816 210.455 264.707 210.189C265.599 209.924 265.036 209.272 263.983 208.483C262.93 207.693 263.542 205.919 263.542 205.919C263.542 205.919 265.146 202.7 264.591 202.438C264.037 202.176 263.983 197.64 263.983 197.64C263.983 197.64 262.877 192.264 263.154 190.806C263.431 189.348 262.268 185.88 262.268 185.88L261.881 181.741C260.697 179.392 260.265 176.615 260.664 173.919V167.535C260.664 167.535 259.113 155.184 258.892 148.942C258.751 144.943 258.791 139.487 258.836 136.083C258.864 134.175 258.892 132.908 258.892 132.908L282.798 129.951C282.798 129.951 282.775 131.262 283.231 134.168C283.477 135.727 283.859 137.746 284.459 140.27C286.174 147.497 285.124 152.883 285.124 152.883L284.9 162.018C284.9 162.018 287.003 168.127 286.561 170.23C286.294 171.479 286.145 172.759 286.114 174.047C286.114 174.047 290.817 187.386 290.319 191.263C289.821 195.14 291.867 201.252 291.867 201.252C291.867 201.252 292.427 205.586 291.873 206.769Z" fill="#464353"/>
<path opacity="0.05" d="M278.205 172.538L285.483 171.386C285.483 171.386 281.36 176.382 278.205 172.538Z" fill="black"/>
<path opacity="0.1" d="M284.431 162.942C284.431 162.942 284.68 166 283.103 167.149C283.103 167.149 285.925 166.625 284.431 162.942Z" fill="black"/>
<path opacity="0.1" d="M283.984 153.219C283.984 153.219 277.9 159.166 275.687 158.672C273.474 158.178 283.984 153.219 283.984 153.219Z" fill="black"/>
<path opacity="0.1" d="M269.184 175.327C269.184 175.327 264.563 176.574 264.425 178.778C264.286 180.982 269.184 175.327 269.184 175.327Z" fill="black"/>
<path opacity="0.05" d="M270.2 202.73C270.2 202.73 263.672 204.175 265.525 205.16C267.379 206.144 270.423 206.934 270.423 206.934C270.423 206.934 272.532 207.065 270.2 202.73Z" fill="black"/>
<g opacity="0.05">
<path opacity="0.05" d="M264.207 206.725C264.043 206.604 263.904 206.439 263.8 206.245C263.697 206.051 263.632 205.831 263.61 205.603L263.542 205.741C263.542 205.741 262.933 207.515 263.986 208.301C264.105 208.392 264.221 208.483 264.326 208.57C264.521 208.526 264.73 208.493 264.931 208.432C265.822 208.17 265.259 207.515 264.207 206.725Z" fill="black"/>
<path opacity="0.05" d="M272.617 206.198C272.798 206.003 272.792 205.499 272.682 204.854C272.399 205.361 272.317 206.154 272.311 206.756C272.38 206.547 272.484 206.357 272.617 206.198Z" fill="black"/>
<path opacity="0.05" d="M271.612 173.509C271.372 174.286 271.223 175.099 271.171 175.925C271.297 175.355 271.466 174.799 271.677 174.265L271.612 173.509Z" fill="black"/>
<path opacity="0.05" d="M286.564 170.062C286.608 169.826 286.627 169.585 286.623 169.343C286.541 169.834 286.485 170.287 286.442 170.687C286.479 170.482 286.519 170.287 286.564 170.062Z" fill="black"/>
<path opacity="0.05" d="M271.456 196.871C271.547 196.709 271.598 196.165 271.621 195.409C271.416 195.994 271.307 196.62 271.301 197.254C271.339 197.119 271.392 196.99 271.456 196.871Z" fill="black"/>
<path opacity="0.05" d="M272.815 209.262C272.472 210.58 272.217 211.928 272.054 213.294L265.361 214.211C265.361 214.211 264.75 213.294 263.864 210.851C263.793 210.663 263.73 210.47 263.675 210.273C263.273 210.492 263.109 210.986 263.641 212.427C264.526 214.86 265.141 215.787 265.141 215.787L271.833 214.866C271.833 214.866 272.331 210.727 272.993 209.937C273.333 209.558 273.123 209.36 272.815 209.262Z" fill="black"/>
<path opacity="0.05" d="M263.986 197.462C263.986 197.462 264.04 201.995 264.594 202.257C264.877 201.507 265.061 200.795 264.812 200.678C264.246 200.415 264.204 195.88 264.204 195.88C264.204 195.88 263.097 190.504 263.375 189.046C263.652 187.587 262.489 184.12 262.489 184.12L262.101 179.981C260.917 177.632 260.485 174.855 260.885 172.159V165.775C260.885 165.775 259.334 153.424 259.113 147.181C258.972 143.183 259.011 137.726 259.057 134.323C259.057 133.708 259.074 133.164 259.082 132.703L258.892 132.727C258.892 132.727 258.861 133.99 258.836 135.902C258.791 139.305 258.748 144.762 258.892 148.757C259.113 155 260.661 167.354 260.661 167.354V173.738C260.264 176.433 260.697 179.208 261.881 181.556L262.265 185.696C262.265 185.696 263.428 189.177 263.151 190.625C262.874 192.073 263.986 197.462 263.986 197.462Z" fill="black"/>
<path opacity="0.05" d="M283.686 212.441C283.143 211.506 282.78 210.44 282.625 209.319C281.943 210.052 282.727 212.894 283.474 214.023C284.247 215.206 290.002 215.928 291.114 213.758V212.508C289.606 214.265 284.416 213.559 283.686 212.441Z" fill="black"/>
<path opacity="0.05" d="M292.096 205.015C291.793 205.646 291.533 206.306 291.321 206.987V207.918C291.448 207.582 291.626 207.132 291.887 206.601C292.062 206.084 292.145 205.529 292.13 204.971C292.13 204.971 292.105 205.002 292.096 205.015Z" fill="black"/>
<path opacity="0.05" d="M284.026 206.053C284.236 205.547 284.419 205.025 284.572 204.491C284.572 204.491 283.63 204.753 282.136 202.65C281.049 201.121 280.987 198.232 281.142 196.343C280.859 197.462 280.421 202.126 281.915 204.229C282.891 205.603 283.63 205.966 284.026 206.053Z" fill="black"/>
<path opacity="0.05" d="M281.14 191.482C281.237 192.776 281.274 194.076 281.25 195.376C281.278 195.17 281.316 194.967 281.363 194.768C281.646 193.649 281.363 189.906 281.363 189.906C281.363 189.906 281.42 187.275 280.976 186.422C280.531 185.568 279.606 180.703 279.606 180.703C279.606 180.703 279.606 179.06 278.831 178.207C278.055 177.353 277.557 174 277.557 174C277.1 173.164 276.9 172.165 276.991 171.174C277.158 169.531 276.052 167.757 276.052 167.757L274.17 160.661L272.399 155.339L271.4 158.43C271.4 158.43 271.4 158.82 271.366 159.438L272.175 156.928L273.947 162.24L275.828 169.336C275.828 169.336 276.935 171.11 276.768 172.753C276.676 173.745 276.876 174.743 277.334 175.579C277.334 175.579 277.832 178.939 278.607 179.786C279.382 180.632 279.38 182.282 279.38 182.282C279.38 182.282 280.322 187.144 280.763 187.994C281.205 188.844 281.14 191.482 281.14 191.482Z" fill="black"/>
</g>
<path d="M285.786 70.592L285.37 72.9909L285.396 74.0594L285.413 74.8456L283.103 75.1278L282.846 74.56C282.368 73.5319 281.375 71.442 281.055 71.1195C280.627 70.6961 279.866 64.0233 280.772 64.4198C281.329 64.6754 281.787 65.1675 282.056 65.8007C282.056 65.8007 286.604 66.419 285.786 70.592Z" fill="#FFCDD3"/>
<path opacity="0.1" d="M285.412 74.8456L283.103 75.1279L282.846 74.56C283.157 74.1402 283.58 73.8612 284.044 73.7705C284.509 73.6799 284.985 73.7831 285.393 74.0628L285.412 74.8456Z" fill="black"/>
<path d="M285.995 76.1459L282.951 76.9826L282.886 76.445L282.713 74.9968C282.713 74.9968 283.918 73.0884 285.661 74.5197L285.814 75.2556L285.995 76.1459Z" fill="#5E35B1"/>
<path d="M236.674 70.854L233.422 72.9237L233.139 72.198C232.831 71.4286 232.37 70.2694 232.242 69.8461C232.05 69.2077 230.694 68.4013 230.694 68.4013C227.299 64.5408 231.345 61.2212 231.345 61.2212C233.49 56.0973 235.873 62.9616 235.873 62.9616C235.873 62.9616 236.207 66.5802 235.972 66.8222C235.737 67.0641 235.737 68.0552 235.737 68.0552C236.047 68.7654 236.309 69.5035 236.521 70.2627C236.62 70.6289 236.674 70.854 236.674 70.854Z" fill="#FFCDD3"/>
<path opacity="0.1" d="M236.674 70.8541L233.422 72.9238L233.139 72.198C233.598 71.7411 235.225 70.1821 235.76 70.2459C236.015 70.2838 236.273 70.2916 236.529 70.2694C236.62 70.629 236.674 70.8541 236.674 70.8541Z" fill="black"/>
<path d="M237.005 72.0199L233.352 74.1568L233.278 73.2261L233.227 72.581C233.227 72.581 235.344 70.4273 235.969 70.5113C236.285 70.5657 236.606 70.5657 236.923 70.5113L236.965 71.2908L237.005 72.0199Z" fill="#5E35B1"/>
<path d="M276.932 86.5279C276.932 86.5279 261.006 88.6615 263.983 87.5124C266.054 86.7094 266.878 85.1605 267.05 83.4133C267.192 81.9585 266.875 80.3894 266.459 79.0454C266.085 77.8532 265.611 76.7084 265.044 75.6284C265.044 75.6284 277.212 67.6789 274.781 74.906C274.406 75.9992 274.174 77.1536 274.091 78.3298C274.018 79.4986 274.124 80.6735 274.405 81.7972C274.864 83.6205 275.738 85.2577 276.932 86.5279Z" fill="#FFCDD3"/>
<path opacity="0.1" d="M274.773 74.896C274.398 75.9891 274.165 77.1436 274.082 78.3198C272.936 79.4655 271.68 79.3882 270.064 79.3882C268.825 79.3882 267.449 79.7444 266.459 79.0354C266.085 77.8431 265.611 76.6984 265.044 75.6184C265.044 75.6184 277.209 67.6688 274.773 74.896Z" fill="black"/>
<path d="M269.849 79.8921C273.486 79.8921 276.434 76.3917 276.434 72.0736C276.434 67.7556 273.486 64.2551 269.849 64.2551C266.212 64.2551 263.264 67.7556 263.264 72.0736C263.264 76.3917 266.212 79.8921 269.849 79.8921Z" fill="#FFCDD3"/>
<path opacity="0.1" d="M276.932 86.528C276.932 86.528 261.006 88.6616 263.983 87.5125C266.054 86.7095 266.878 85.1605 267.05 83.4134C267.843 82.4054 269.436 81.6562 270.446 81.2664C271.38 80.8935 272.389 80.8735 273.332 81.2093C273.704 81.3421 274.057 81.5366 274.382 81.7872C274.846 83.6172 275.729 85.2584 276.932 86.528Z" fill="black"/>
<path opacity="0.1" d="M285.995 76.1459L282.951 76.9825L282.886 76.4449C283.212 75.9132 283.668 75.5138 284.192 75.3009C284.716 75.0881 285.282 75.0722 285.814 75.2555L285.995 76.1459Z" fill="black"/>
<path opacity="0.1" d="M237.005 72.0199L233.352 74.1568L233.278 73.2261C234.461 72.4707 235.691 71.8227 236.957 71.2875L237.005 72.0199Z" fill="black"/>
<path opacity="0.1" d="M283.231 134.175C277.059 135.344 268.287 136.836 266.895 136.332C265.738 135.915 262.048 135.959 258.836 136.09C258.864 134.182 258.893 132.915 258.893 132.915L282.798 129.958C282.798 129.958 282.775 131.268 283.231 134.175Z" fill="black"/>
<path d="M289.383 132.455C289.383 132.455 269.074 136.594 266.895 135.814C264.716 135.035 253.525 135.878 253.525 135.878C248.488 139.887 250.59 133.973 250.59 133.973C250.59 133.973 250.149 130.885 250.757 128.389C251.166 126.556 251.445 124.686 251.592 122.798C251.592 122.798 251.482 118.854 252.09 117.933C252.698 117.012 253.42 110.444 253.42 110.444C253.42 110.444 253.972 105.975 253.918 104.991C253.864 104.006 254.082 101.244 254.082 101.244L254.804 96.6447C250.652 95.9895 238.035 86.79 238.035 86.79C237.426 83.7023 232.723 76.4751 232.723 76.4751C232.655 75.8674 232.525 75.2717 232.336 74.7011C232.005 73.6494 236.985 71.5461 236.985 71.5461C236.985 71.5461 240.692 76.922 241.467 78.3802C242.243 79.8384 244.897 82.5196 244.897 82.5196C245.309 82.4692 245.726 82.5337 246.114 82.7078L246.179 82.7313C247.068 83.1459 247.902 83.7118 248.655 84.4112C249.903 84.3761 251.113 84.9182 252.03 85.9232C252.03 85.9232 254.294 85.5267 254.688 85.987C255.081 86.4473 257.011 85.987 257.011 85.987C257.011 85.987 258.946 81.1252 260.22 82.5364C261.493 83.9476 266.895 83.8804 266.895 83.8804C267.614 82.7447 269.365 81.9316 270.46 81.5284C271.395 81.157 272.403 81.1371 273.347 81.4713C273.754 81.6156 274.137 81.843 274.479 82.1433L277.764 85.9534C277.764 85.9534 278.703 84.5053 278.593 84.1794C278.483 83.8535 279.699 83.5881 279.699 83.5881C279.699 83.5881 281.304 82.9967 281.912 82.7985C282.521 82.6002 283.078 83.3831 283.129 83.4537C283.109 83.3697 282.693 81.7737 282.846 80.5641C282.999 79.3546 282.181 78.2122 282.181 78.2122C284.116 72.5608 288.488 77.2916 288.488 77.2916C288.488 77.2916 288.986 80.3793 288.545 81.562C288.104 82.7447 288.986 85.2411 288.876 85.8997C288.766 86.5582 289.1 87.6737 289.1 88.9236C289.1 90.1735 288.534 92.5355 288.214 93.5871C287.894 94.6388 285.226 97.0042 285.226 97.0042C285.226 97.0042 285.059 100.75 283.896 102.918C282.733 105.085 283.463 112.497 283.463 112.497C283.463 112.497 284.569 118.279 285.953 120.12C287.337 121.962 289.383 132.455 289.383 132.455Z" fill="#3F3D56"/>
<path opacity="0.1" d="M259.778 89.2193C259.778 89.2193 259.17 87.0522 258.615 86.8674C258.065 86.6269 257.528 86.3417 257.011 86.014L257.367 85.2042C257.367 85.2042 259.444 85.8762 259.778 86.6053C260.112 87.3344 259.778 89.2193 259.778 89.2193Z" fill="black"/>
<path opacity="0.1" d="M248.655 84.4247C248.544 85.0967 243.618 85.6712 243.618 85.6712L246.108 82.7078L246.17 82.7346C247.063 83.1515 247.9 83.7209 248.655 84.4247Z" fill="black"/>
<path d="M234.404 75.9309C234.648 75.9309 234.846 75.6962 234.846 75.4067C234.846 75.1172 234.648 74.8826 234.404 74.8826C234.16 74.8826 233.963 75.1172 233.963 75.4067C233.963 75.6962 234.16 75.9309 234.404 75.9309Z" fill="#575988"/>
<path d="M234.97 76.9825C235.214 76.9825 235.412 76.7478 235.412 76.4584C235.412 76.1689 235.214 75.9342 234.97 75.9342C234.726 75.9342 234.529 76.1689 234.529 76.4584C234.529 76.7478 234.726 76.9825 234.97 76.9825Z" fill="#575988"/>
<path d="M235.525 77.9536C235.769 77.9536 235.966 77.7189 235.966 77.4294C235.966 77.1399 235.769 76.9053 235.525 76.9053C235.281 76.9053 235.083 77.1399 235.083 77.4294C235.083 77.7189 235.281 77.9536 235.525 77.9536Z" fill="#575988"/>
<path d="M236.105 79.0018C236.349 79.0018 236.546 78.7671 236.546 78.4776C236.546 78.1882 236.349 77.9535 236.105 77.9535C235.861 77.9535 235.663 78.1882 235.663 78.4776C235.663 78.7671 235.861 79.0018 236.105 79.0018Z" fill="#575988"/>
<path d="M288.268 78.8472C288.466 78.8472 288.627 78.6561 288.627 78.4205C288.627 78.1848 288.466 77.9938 288.268 77.9938C288.069 77.9938 287.908 78.1848 287.908 78.4205C287.908 78.6561 288.069 78.8472 288.268 78.8472Z" fill="#575988"/>
<path d="M288.324 79.8183C288.523 79.8183 288.684 79.6272 288.684 79.3916C288.684 79.1559 288.523 78.9648 288.324 78.9648C288.126 78.9648 287.965 79.1559 287.965 79.3916C287.965 79.6272 288.126 79.8183 288.324 79.8183Z" fill="#575988"/>
<path d="M288.372 80.7859C288.571 80.7859 288.732 80.5949 288.732 80.3592C288.732 80.1235 288.571 79.9325 288.372 79.9325C288.174 79.9325 288.013 80.1235 288.013 80.3592C288.013 80.5949 288.174 80.7859 288.372 80.7859Z" fill="#575988"/>
<path opacity="0.1" d="M259.798 107.027C259.744 106.95 272.22 125.654 281.904 114.845C281.912 114.849 266.612 117.312 259.798 107.027Z" fill="black"/>
<path opacity="0.1" d="M252.639 116.75C252.639 116.75 260.104 116.992 260.885 119.542V122.197C260.672 122.337 260.433 122.41 260.19 122.41C259.947 122.41 259.708 122.337 259.495 122.197C258.742 121.713 254.229 118.991 252.639 120.302V116.75Z" fill="black"/>
<path d="M252.777 116.75C252.777 116.75 259.917 116.982 260.664 119.415V121.941C260.46 122.076 260.232 122.146 259.999 122.146C259.766 122.146 259.537 122.076 259.334 121.941C258.615 121.484 254.3 118.887 252.777 120.137V116.75Z" fill="#3F3D56"/>
<path opacity="0.1" d="M256.714 97.5049C257.476 99.6009 258.448 101.581 259.608 103.402C260.87 105.414 262.399 107.17 264.136 108.599C264.136 108.599 256.838 98.7212 256.714 97.5049Z" fill="black"/>
<path opacity="0.1" d="M254.271 87.2067C254.271 87.2067 255.517 93.5905 258.725 95.7576L254.271 87.2067Z" fill="black"/>
<path opacity="0.1" d="M252.361 87.8518C252.33 87.7342 251.255 92.8917 256.498 95.7577C256.498 95.7577 254.271 94.8606 252.361 87.8518Z" fill="black"/>
<path opacity="0.1" d="M284.957 83.5713C284.875 83.5713 287.543 85.5872 288.271 86.528C288.271 86.528 286.533 83.4369 284.957 83.5713Z" fill="black"/>
<path d="M268.069 79.1598C268.07 79.3303 268.101 79.4988 268.16 79.6545C268.218 79.8102 268.303 79.9498 268.41 80.0645C268.516 80.1791 268.641 80.2663 268.778 80.3205C268.914 80.3747 269.058 80.3948 269.201 80.3794C271.207 80.5273 273.298 80.6314 275.143 79.7074C275.49 79.5608 275.8 79.3163 276.049 78.9951C276.377 78.5147 276.442 77.8628 276.575 77.2648C276.836 76.0955 277.39 75.0573 277.789 73.9452C278.464 72.0663 278.69 70.0029 278.443 67.9814C278.391 67.3617 278.218 66.7648 277.939 66.2376C277.407 65.3338 276.437 64.9675 275.732 64.2485C275.027 63.5295 274.575 62.4308 273.751 61.8966C273.01 61.406 272.102 61.4665 271.267 61.6345C269.625 61.9656 268.051 62.667 266.632 63.7008C266.153 64.0368 265.63 64.4501 265.081 64.3258C264.6 64.2183 264.249 63.7378 263.949 63.2876C263.563 64.3628 263.401 65.5325 263.477 66.6979C263.497 66.8689 263.493 67.0429 263.462 67.2119C263.393 67.4163 263.288 67.6007 263.154 67.7529C262.659 68.4249 262.35 69.5168 262.84 70.209C263.052 70.508 263.38 70.6726 263.587 70.9784C263.958 71.5261 263.833 72.3224 263.825 73.0212C263.804 73.2652 263.856 73.5101 263.972 73.7134C264.079 73.8318 264.21 73.9155 264.352 73.9561C264.494 73.9967 264.643 73.9929 264.784 73.9452C265.064 73.8449 265.359 73.8118 265.65 73.8478C265.957 73.9662 266.221 74.2026 266.403 74.5197C267.317 75.9343 267.679 77.4731 268.069 79.1598Z" fill="#2D293D"/>
<g opacity="0.1">
<path opacity="0.1" d="M276.284 78.4003C276.035 78.7215 275.724 78.9659 275.378 79.1126C273.522 80.0298 271.434 79.9257 269.436 79.7846C269.221 79.7871 269.009 79.7308 268.816 79.6199C268.511 79.4083 268.395 78.9647 268.301 78.5616C267.911 76.8816 267.551 75.3394 266.623 73.9383C266.444 73.6151 266.179 73.3726 265.871 73.2495C265.579 73.2169 265.286 73.25 265.005 73.347C264.864 73.3952 264.716 73.3995 264.573 73.3594C264.431 73.3194 264.3 73.2364 264.193 73.1185C264.077 72.9152 264.025 72.6704 264.045 72.4264C264.045 71.7208 264.178 70.9312 263.808 70.3835C263.601 70.0778 263.273 69.9132 263.061 69.6108C262.922 69.3878 262.837 69.1245 262.815 68.8488C262.792 68.5731 262.833 68.2953 262.933 68.045C262.58 68.717 262.43 69.5604 262.84 70.1383C263.052 70.4373 263.38 70.6019 263.587 70.9077C263.958 71.4587 263.833 72.2517 263.825 72.9505C263.803 73.1942 263.854 73.4392 263.969 73.6427C264.076 73.7617 264.208 73.8457 264.351 73.8863C264.494 73.9269 264.643 73.9229 264.784 73.8745C265.064 73.7742 265.359 73.7411 265.65 73.777C265.957 73.8955 266.221 74.1319 266.403 74.449C267.328 75.8501 267.69 77.3889 268.081 79.0756C268.126 79.4907 268.301 79.8705 268.57 80.1407C268.764 80.2517 268.977 80.307 269.193 80.302C271.199 80.4498 273.29 80.5573 275.135 79.63C275.481 79.4843 275.792 79.2397 276.04 78.9177C276.165 78.7284 276.261 78.5146 276.323 78.286C276.326 78.3297 276.306 78.3667 276.284 78.4003Z" fill="black"/>
<path opacity="0.1" d="M263.477 67.0069C263.565 66.8923 263.634 66.7574 263.677 66.6104C263.703 66.4404 263.703 66.2664 263.677 66.0964C263.622 65.1384 263.727 64.177 263.986 63.2673L263.949 63.2169C263.562 64.2905 263.4 65.4596 263.477 66.6239C263.485 66.7513 263.485 66.8794 263.477 67.0069Z" fill="black"/>
</g>
<path opacity="0.1" d="M266.895 83.8972C266.895 83.8972 275.121 85.1941 275.859 83.7258L266.895 83.8972Z" fill="black"/>
<path opacity="0.1" d="M282.886 79.8552C282.886 79.8552 287.458 79.8552 288.463 81.898L282.886 79.8552Z" fill="black"/>
<path d="M308.469 261.341C307.113 262.781 305.35 263.562 303.531 263.531C303.067 263.531 302.425 263.636 302.422 264.187C302.433 264.348 302.48 264.504 302.558 264.637C303.132 265.773 304.039 266.619 305.104 267.012C306.095 267.368 307.153 267.308 308.186 267.244L311.2 267.059C311.766 267.022 312.332 266.989 312.897 266.905C313.463 266.821 314.08 266.683 314.672 266.569C316.125 266.324 317.594 266.243 319.061 266.327C319.451 266.344 319.909 266.327 320.141 265.991C320.374 265.655 320.255 265.013 320.167 264.509C319.986 263.471 320.167 262.382 320 261.341C319.717 259.513 318.384 258.112 316.924 257.45C315.566 256.838 313.161 256.136 311.876 257.158C310.52 258.229 309.691 260.02 308.469 261.341Z" fill="#3F3D56"/>
<path d="M311.463 200.103C311.729 201.605 312.954 202.754 312.988 204.286C313.019 205.516 312.281 206.547 311.749 207.599C311.247 208.688 310.824 209.826 310.484 210.999C309.482 214.055 308.239 216.991 306.771 219.769C306.064 221.113 305.271 222.547 305.433 224.11C305.545 224.84 305.763 225.542 306.075 226.186L308.197 231.192C308.662 232.192 309.026 233.253 309.281 234.354C309.465 235.305 309.482 236.289 309.589 237.257C309.923 240.328 311.137 243.419 310.419 246.396C310.356 246.651 310.136 246.96 309.963 246.782C310.665 248.338 311.228 249.904 311.174 251.668C311.146 252.592 310.908 253.556 311.194 254.416C311.316 254.775 311.528 255.111 311.525 255.498C311.525 255.753 311.426 255.992 311.403 256.24C311.344 256.949 311.893 257.541 312.462 257.766C313.03 257.991 313.65 257.974 314.225 258.179C315.328 258.572 316.118 259.701 317.054 260.484C318.015 261.27 319.148 261.708 320.314 261.744C320.48 261.765 320.648 261.725 320.795 261.63C320.878 261.543 320.945 261.437 320.991 261.318C321.037 261.198 321.061 261.069 321.061 260.938C321.112 260.31 321.033 259.677 320.829 259.095C320.626 258.512 320.305 257.998 319.895 257.598C319.715 257.464 319.567 257.279 319.462 257.06C319.409 256.866 319.396 256.66 319.423 256.459C319.593 253.705 319.552 250.938 319.298 248.193C319.184 247.323 319.147 246.442 319.188 245.563C319.247 244.83 319.434 244.104 319.366 243.375C319.298 242.646 318.984 241.981 318.8 241.279C318.472 240.029 318.562 238.685 318.517 237.378C318.461 235.107 318.022 232.876 317.586 230.658C317.414 229.788 317.224 228.877 316.706 228.232C316.265 227.685 315.552 227.16 315.719 226.431C315.811 226.163 315.949 225.919 316.123 225.716C316.328 225.41 316.479 225.059 316.565 224.682C316.652 224.305 316.673 223.912 316.627 223.525C316.813 223.581 317.01 223.559 317.184 223.462C317.358 223.366 317.498 223.2 317.581 222.994C321.027 221.062 323.806 217.198 325.045 212.914C325.118 212.596 325.231 212.293 325.379 212.014C325.699 211.483 326.254 211.255 326.746 210.962C328.291 210.038 329.358 208.308 330.337 206.615C330.903 205.633 331.469 204.619 331.723 203.463C331.857 202.715 331.921 201.952 331.913 201.188L332.001 197.24C332.02 196.98 331.999 196.719 331.938 196.468C331.854 196.233 331.732 196.021 331.579 195.843C330.638 194.661 329.402 193.869 328.053 193.585C327.148 193.393 326.222 193.43 325.306 193.34C323.529 193.165 321.774 192.51 319.997 192.668C317.204 192.913 314.717 195.211 313.401 198.148C312.94 199.182 312.453 200.083 311.463 200.103Z" fill="#464353"/>
<path d="M295.956 174.433C295.994 175.043 295.924 175.655 295.752 176.231C295.534 176.782 294.988 177.212 294.51 176.987C294.654 176.6 294.272 176.16 293.916 176.207C293.74 176.255 293.577 176.353 293.441 176.492C293.304 176.632 293.198 176.808 293.132 177.007C292.896 177.571 292.816 178.21 292.906 178.831C293.019 179.604 293.395 180.347 293.296 181.123C293.217 181.768 292.818 182.41 293.03 183.008C293.168 183.281 293.341 183.527 293.542 183.737C293.822 184.146 293.959 184.666 293.924 185.192C293.89 185.717 293.688 186.206 293.358 186.559L298.712 186.687C298.517 187.749 298.919 188.834 299.377 189.778C300.661 192.374 302.434 194.581 304.557 196.227C306.68 197.872 309.095 198.912 311.613 199.263C311.477 199.357 311.36 199.487 311.271 199.641C311.182 199.796 311.123 199.972 311.098 200.157C311.074 200.341 311.084 200.53 311.128 200.71C311.173 200.89 311.25 201.055 311.355 201.195C311.791 201.709 312.53 201.645 313.076 201.313C313.622 200.98 314.049 200.429 314.547 200.002C315.426 199.263 316.499 198.919 317.572 199.035C318.243 199.112 318.894 199.371 319.567 199.411C321.548 199.535 323.246 197.842 325.153 197.15C326.542 196.642 328.118 196.642 329.284 195.611C329.788 195.167 330.201 194.438 330.054 193.719C329.932 193.306 329.739 192.927 329.488 192.607C328.817 191.576 328.421 190.336 327.94 189.163C326.987 186.842 325.675 184.753 324.072 183.008C322.862 181.752 321.58 180.598 320.235 179.554C319.91 179.269 319.563 179.02 319.199 178.811C318.729 178.566 318.209 178.448 317.784 178.139C317.156 177.669 316.794 176.839 316.31 176.17C315.249 174.699 313.619 174.023 312.312 172.868C311.434 172.091 310.659 171.07 309.612 170.697C309.103 170.512 308.562 170.499 308.053 170.317C306.896 169.901 306.052 168.681 304.918 168.187C304.021 167.797 303.03 167.898 302.088 167.761C301.026 167.605 300.011 167.146 299.131 166.423C298.847 166.149 298.529 165.929 298.189 165.771C296.754 165.254 296.638 168.426 296.491 169.524C296.301 171.157 295.956 172.78 295.956 174.433Z" fill="#5E35B1"/>
<path d="M297.354 185.071C297.594 188.169 295.625 191.169 296.199 194.203C296.321 194.848 296.556 195.463 296.641 196.118C296.881 197.916 295.976 199.619 295.113 201.124L287.699 214.043C287.401 214.61 287.046 215.132 286.641 215.596C285.226 217.091 283.098 216.94 281.236 217.383C279.928 217.702 278.693 218.351 277.614 219.285C277.565 219.329 277.533 219.395 277.525 219.467C277.516 219.539 277.532 219.613 277.569 219.671C277.876 220.168 278.283 220.566 278.753 220.828C279.223 221.091 279.741 221.209 280.26 221.173C280.455 221.475 280.26 221.926 279.991 222.144C279.595 222.48 279.046 222.557 278.966 223.36C278.94 223.639 278.987 223.921 279.102 224.167C279.402 224.708 279.866 225.091 280.398 225.235C282.965 226.169 285.738 224.53 287.659 222.302C289.581 220.074 290.959 217.262 292.843 214.998C293.887 213.741 295.073 212.669 296.148 211.453C298.293 209.024 299.963 206.077 301.57 203.124C302.054 202.233 302.544 201.319 302.744 200.288C302.945 199.256 302.852 198.211 303.081 197.214C303.381 195.907 304.188 194.862 304.858 193.766C306.174 191.616 307.054 188.985 306.879 186.334C306.703 183.683 305.322 181.069 303.217 180.169C302.564 179.861 301.845 179.809 301.165 180.021C300.302 180.337 299.666 181.183 299.077 181.997L297.662 183.925C297.318 184.352 297.048 184.856 296.867 185.407C296.776 185.684 296.754 185.988 296.804 186.28C296.854 186.572 296.975 186.84 297.15 187.053" fill="#FBBEBE"/>
<path d="M301.112 172.364C300.138 172.431 299.066 172.545 298.378 173.372C298.09 173.751 297.856 174.185 297.688 174.655C297.02 176.271 296.369 177.961 296.321 179.762C296.281 181.2 296.632 182.608 296.816 184.029C296.969 185.212 296.581 186.418 296.508 187.614C297.716 187.174 299.312 186.576 300.407 185.833C301.154 185.326 301.876 184.748 302.691 184.426C303.854 183.965 305.803 184.762 306.91 185.4C306.969 184.479 306.386 182.873 306.448 181.949C306.457 181.56 306.515 181.175 306.621 180.807C306.787 180.417 306.983 180.047 307.207 179.702C307.628 178.889 307.822 177.938 307.76 176.986C307.699 176.035 307.385 175.13 306.864 174.403C305.883 173.093 304.346 172.602 302.88 172.387C301.957 172.26 301.027 172.222 300.099 172.273" fill="#5E35B1"/>
<defs>
<linearGradient id="paint0_linear" x1="-203.333" y1="105.721" x2="408.397" y2="374.975" gradientUnits="userSpaceOnUse">
<stop stop-color="#1976D2"/>
<stop offset="0.1725" stop-color="#004BA0" stop-opacity="0.82"/>
<stop offset="0.175423" stop-color="#1D8FF3" stop-opacity="0.67"/>
<stop offset="0.9999" stop-color="#1E96FC"/>
</linearGradient>
<linearGradient id="paint1_linear" x1="260.839" y1="223.512" x2="260.839" y2="59.3262" gradientUnits="userSpaceOnUse">
<stop stop-color="#808080" stop-opacity="0.25"/>
<stop offset="0.54" stop-color="#808080" stop-opacity="0.12"/>
<stop offset="1" stop-color="#808080" stop-opacity="0.1"/>
</linearGradient>
</defs>
</svg>
